<mxfile host="app.diagrams.net" agent="Mozilla/5.0 (Windows NT 10.0; Win64; x64; rv:131.0) Gecko/20100101 Firefox/131.0" version="24.8.2">
  <diagram name="Page-1" id="0TZgEA8DzFd3jdXIB8Kl">
    <mxGraphModel dx="1434" dy="706" grid="1" gridSize="10" guides="1" tooltips="1" connect="1" arrows="1" fold="1" page="1" pageScale="1" pageWidth="827" pageHeight="1169" math="0" shadow="0">
      <root>
        <mxCell id="0" />
        <mxCell id="1" parent="0" />
        <mxCell id="ADZ_txzKDmMAMx2gTmLs-1" value="&lt;font style=&quot;font-size: 30px;&quot;&gt;Caching strategy&lt;/font&gt;" style="text;html=1;align=center;verticalAlign=middle;whiteSpace=wrap;rounded=0;" parent="1" vertex="1">
          <mxGeometry x="296" y="10" width="236" height="80" as="geometry" />
        </mxCell>
        <mxCell id="ADZ_txzKDmMAMx2gTmLs-6" style="edgeStyle=orthogonalEdgeStyle;rounded=0;orthogonalLoop=1;jettySize=auto;html=1;exitX=1;exitY=0.5;exitDx=0;exitDy=0;entryX=0;entryY=0.5;entryDx=0;entryDy=0;" parent="1" source="ADZ_txzKDmMAMx2gTmLs-2" target="ADZ_txzKDmMAMx2gTmLs-5" edge="1">
          <mxGeometry relative="1" as="geometry" />
        </mxCell>
        <mxCell id="ADZ_txzKDmMAMx2gTmLs-9" value="&lt;div&gt;sends&amp;nbsp;&lt;/div&gt;&lt;div&gt;request&lt;/div&gt;" style="edgeLabel;html=1;align=center;verticalAlign=middle;resizable=0;points=[];" parent="ADZ_txzKDmMAMx2gTmLs-6" vertex="1" connectable="0">
          <mxGeometry x="-0.5714" relative="1" as="geometry">
            <mxPoint as="offset" />
          </mxGeometry>
        </mxCell>
        <mxCell id="ADZ_txzKDmMAMx2gTmLs-2" value="Client" style="rounded=0;whiteSpace=wrap;html=1;" parent="1" vertex="1">
          <mxGeometry x="20" y="210" width="120" height="60" as="geometry" />
        </mxCell>
        <mxCell id="ADZ_txzKDmMAMx2gTmLs-10" style="edgeStyle=orthogonalEdgeStyle;rounded=0;orthogonalLoop=1;jettySize=auto;html=1;" parent="1" source="ADZ_txzKDmMAMx2gTmLs-14" edge="1">
          <mxGeometry relative="1" as="geometry">
            <mxPoint x="660" y="240" as="targetPoint" />
          </mxGeometry>
        </mxCell>
        <mxCell id="ADZ_txzKDmMAMx2gTmLs-18" value="&lt;div&gt;No - send&amp;nbsp;&lt;/div&gt;&lt;div&gt;request to&amp;nbsp;&lt;/div&gt;&lt;div&gt;microservice&lt;/div&gt;" style="edgeLabel;html=1;align=center;verticalAlign=middle;resizable=0;points=[];" parent="ADZ_txzKDmMAMx2gTmLs-10" vertex="1" connectable="0">
          <mxGeometry x="-0.5851" y="-2" relative="1" as="geometry">
            <mxPoint x="26" as="offset" />
          </mxGeometry>
        </mxCell>
        <mxCell id="ADZ_txzKDmMAMx2gTmLs-5" value="Proxy" style="rounded=0;whiteSpace=wrap;html=1;" parent="1" vertex="1">
          <mxGeometry x="280" y="210" width="120" height="60" as="geometry" />
        </mxCell>
        <mxCell id="ADZ_txzKDmMAMx2gTmLs-8" value="" style="endArrow=none;dashed=1;html=1;rounded=0;" parent="1" edge="1">
          <mxGeometry width="50" height="50" relative="1" as="geometry">
            <mxPoint x="200" y="520" as="sourcePoint" />
            <mxPoint x="200" y="80" as="targetPoint" />
          </mxGeometry>
        </mxCell>
        <mxCell id="ADZ_txzKDmMAMx2gTmLs-12" value="" style="endArrow=none;dashed=1;html=1;rounded=0;" parent="1" edge="1">
          <mxGeometry width="50" height="50" relative="1" as="geometry">
            <mxPoint x="600" y="520" as="sourcePoint" />
            <mxPoint x="600" y="80" as="targetPoint" />
          </mxGeometry>
        </mxCell>
        <mxCell id="ADZ_txzKDmMAMx2gTmLs-15" value="" style="edgeStyle=orthogonalEdgeStyle;rounded=0;orthogonalLoop=1;jettySize=auto;html=1;" parent="1" source="ADZ_txzKDmMAMx2gTmLs-5" target="ADZ_txzKDmMAMx2gTmLs-14" edge="1">
          <mxGeometry relative="1" as="geometry">
            <mxPoint x="660" y="240" as="targetPoint" />
            <mxPoint x="400" y="240" as="sourcePoint" />
          </mxGeometry>
        </mxCell>
        <mxCell id="ADZ_txzKDmMAMx2gTmLs-19" style="edgeStyle=orthogonalEdgeStyle;rounded=0;orthogonalLoop=1;jettySize=auto;html=1;exitX=0.5;exitY=1;exitDx=0;exitDy=0;entryX=1;entryY=0.5;entryDx=0;entryDy=0;" parent="1" source="ADZ_txzKDmMAMx2gTmLs-14" target="ADZ_txzKDmMAMx2gTmLs-22" edge="1">
          <mxGeometry relative="1" as="geometry">
            <mxPoint x="520" y="410" as="targetPoint" />
          </mxGeometry>
        </mxCell>
        <mxCell id="ADZ_txzKDmMAMx2gTmLs-20" value="&lt;div&gt;Yes&lt;/div&gt;&lt;div&gt;request&amp;nbsp;&lt;/div&gt;&lt;div&gt;is cached&lt;br&gt;&lt;/div&gt;" style="edgeLabel;html=1;align=center;verticalAlign=middle;resizable=0;points=[];" parent="ADZ_txzKDmMAMx2gTmLs-19" vertex="1" connectable="0">
          <mxGeometry x="-0.5445" y="-1" relative="1" as="geometry">
            <mxPoint as="offset" />
          </mxGeometry>
        </mxCell>
        <mxCell id="ADZ_txzKDmMAMx2gTmLs-14" value="" style="rhombus;whiteSpace=wrap;html=1;" parent="1" vertex="1">
          <mxGeometry x="500" y="220" width="40" height="40" as="geometry" />
        </mxCell>
        <mxCell id="ADZ_txzKDmMAMx2gTmLs-17" value="&lt;div&gt;contains&amp;nbsp;&lt;/div&gt;&lt;div&gt;resource&lt;/div&gt;" style="text;html=1;align=center;verticalAlign=middle;resizable=0;points=[];autosize=1;strokeColor=none;fillColor=none;" parent="1" vertex="1">
          <mxGeometry x="485" y="180" width="70" height="40" as="geometry" />
        </mxCell>
        <mxCell id="ADZ_txzKDmMAMx2gTmLs-25" style="edgeStyle=orthogonalEdgeStyle;rounded=0;orthogonalLoop=1;jettySize=auto;html=1;entryX=1;entryY=0.75;entryDx=0;entryDy=0;" parent="1" source="ADZ_txzKDmMAMx2gTmLs-21" target="ADZ_txzKDmMAMx2gTmLs-22" edge="1">
          <mxGeometry relative="1" as="geometry">
            <Array as="points">
              <mxPoint x="720" y="435" />
            </Array>
          </mxGeometry>
        </mxCell>
        <mxCell id="ADZ_txzKDmMAMx2gTmLs-26" value="&lt;div&gt;Send response&lt;/div&gt;&lt;div&gt;to proxy side&lt;br&gt;&lt;/div&gt;" style="edgeLabel;html=1;align=center;verticalAlign=middle;resizable=0;points=[];" parent="ADZ_txzKDmMAMx2gTmLs-25" vertex="1" connectable="0">
          <mxGeometry x="-0.0253" y="-1" relative="1" as="geometry">
            <mxPoint as="offset" />
          </mxGeometry>
        </mxCell>
        <mxCell id="ADZ_txzKDmMAMx2gTmLs-21" value="Microservice" style="rounded=0;whiteSpace=wrap;html=1;" parent="1" vertex="1">
          <mxGeometry x="660" y="210" width="120" height="60" as="geometry" />
        </mxCell>
        <mxCell id="ADZ_txzKDmMAMx2gTmLs-28" value="" style="edgeStyle=orthogonalEdgeStyle;rounded=0;orthogonalLoop=1;jettySize=auto;html=1;" parent="1" source="ADZ_txzKDmMAMx2gTmLs-22" edge="1">
          <mxGeometry relative="1" as="geometry">
            <mxPoint x="390" y="530" as="targetPoint" />
          </mxGeometry>
        </mxCell>
        <mxCell id="ADZ_txzKDmMAMx2gTmLs-30" value="&lt;div&gt;Save cache/&lt;/div&gt;&lt;div&gt;request cache&lt;br&gt;&lt;/div&gt;" style="edgeLabel;html=1;align=center;verticalAlign=middle;resizable=0;points=[];" parent="ADZ_txzKDmMAMx2gTmLs-28" vertex="1" connectable="0">
          <mxGeometry x="0.0062" y="5" relative="1" as="geometry">
            <mxPoint x="-5" y="-1" as="offset" />
          </mxGeometry>
        </mxCell>
        <mxCell id="ADZ_txzKDmMAMx2gTmLs-22" value="Cache service" style="rounded=0;whiteSpace=wrap;html=1;" parent="1" vertex="1">
          <mxGeometry x="330" y="390" width="120" height="60" as="geometry" />
        </mxCell>
        <mxCell id="ADZ_txzKDmMAMx2gTmLs-23" style="edgeStyle=orthogonalEdgeStyle;rounded=0;orthogonalLoop=1;jettySize=auto;html=1;exitX=0.5;exitY=0;exitDx=0;exitDy=0;entryX=0.917;entryY=1.05;entryDx=0;entryDy=0;entryPerimeter=0;" parent="1" source="ADZ_txzKDmMAMx2gTmLs-22" target="ADZ_txzKDmMAMx2gTmLs-5" edge="1">
          <mxGeometry relative="1" as="geometry" />
        </mxCell>
        <mxCell id="ADZ_txzKDmMAMx2gTmLs-24" value="&lt;div&gt;Gives&amp;nbsp;&lt;/div&gt;&lt;div&gt;response&lt;/div&gt;" style="edgeLabel;html=1;align=center;verticalAlign=middle;resizable=0;points=[];" parent="ADZ_txzKDmMAMx2gTmLs-23" vertex="1" connectable="0">
          <mxGeometry x="0.3504" y="1" relative="1" as="geometry">
            <mxPoint y="20" as="offset" />
          </mxGeometry>
        </mxCell>
        <mxCell id="ADZ_txzKDmMAMx2gTmLs-29" value="Cache DB" style="shape=cylinder3;whiteSpace=wrap;html=1;boundedLbl=1;backgroundOutline=1;size=15;" parent="1" vertex="1">
          <mxGeometry x="360" y="530" width="60" height="80" as="geometry" />
        </mxCell>
        <mxCell id="ADZ_txzKDmMAMx2gTmLs-31" value="&lt;font style=&quot;font-size: 17px;&quot;&gt;Strategy&lt;/font&gt;" style="swimlane;fontStyle=0;childLayout=stackLayout;horizontal=1;startSize=30;horizontalStack=0;resizeParent=1;resizeParentMax=0;resizeLast=0;collapsible=1;marginBottom=0;whiteSpace=wrap;html=1;" parent="1" vertex="1">
          <mxGeometry x="30" y="650" width="470" height="140" as="geometry" />
        </mxCell>
        <mxCell id="ADZ_txzKDmMAMx2gTmLs-32" value="1. Will cache data if certain threshold of same request will be reached (in certain time) to overcome unexpected loads" style="text;strokeColor=none;fillColor=none;align=left;verticalAlign=middle;spacingLeft=4;spacingRight=4;overflow=hidden;points=[[0,0.5],[1,0.5]];portConstraint=eastwest;rotatable=0;whiteSpace=wrap;html=1;" parent="ADZ_txzKDmMAMx2gTmLs-31" vertex="1">
          <mxGeometry y="30" width="470" height="30" as="geometry" />
        </mxCell>
        <mxCell id="ADZ_txzKDmMAMx2gTmLs-33" value="2. TTL - cached items will have certain expiration date" style="text;strokeColor=none;fillColor=none;align=left;verticalAlign=middle;spacingLeft=4;spacingRight=4;overflow=hidden;points=[[0,0.5],[1,0.5]];portConstraint=eastwest;rotatable=0;whiteSpace=wrap;html=1;" parent="ADZ_txzKDmMAMx2gTmLs-31" vertex="1">
          <mxGeometry y="60" width="470" height="30" as="geometry" />
        </mxCell>
        <mxCell id="6xhLimalPGQgwhrCyhh_-5" value="3. Cache service is part of proxy service (each proxy will have its unique cache id naming, so they wont be able to overwrite data in Redis - in future probably change to cental service for adding cache and other services to only read data)" style="text;strokeColor=none;fillColor=none;align=left;verticalAlign=middle;spacingLeft=4;spacingRight=4;overflow=hidden;points=[[0,0.5],[1,0.5]];portConstraint=eastwest;rotatable=0;whiteSpace=wrap;html=1;" vertex="1" parent="ADZ_txzKDmMAMx2gTmLs-31">
          <mxGeometry y="90" width="470" height="50" as="geometry" />
        </mxCell>
      </root>
    </mxGraphModel>
  </diagram>
</mxfile>
